# Blender 4.0.2
# www.blender.org
o collision
v -9.072895 0.000000 2.940258
v -7.425482 0.000000 0.944142
v -7.000000 0.000000 -1.000000
v -10.995212 0.000000 4.474761
v -11.754414 0.000000 0.245587
v -11.000000 0.000000 -1.000000
v -12.823324 0.000000 5.530027
v -14.419494 0.000000 7.454309
v -15.403831 0.000000 2.419494
v -17.605745 0.000000 4.495212
v -19.000000 0.000000 7.000000
v -15.000000 0.000000 9.000000
v -9.000000 0.000000 13.000000
v -7.000000 0.000000 13.000000
v -11.000000 0.000000 13.000000
v -13.000000 0.000000 13.000000
v -15.000000 0.000000 13.000000
v -9.000000 0.000000 15.000000
v -7.000000 -0.500000 15.000000
v -11.000000 0.000000 15.000000
v -13.000000 -0.500000 15.000000
v -15.000000 -0.500000 15.000000
v -3.000000 0.000000 13.000000
v -3.000000 -0.500000 15.000000
v -1.000000 0.000000 13.000000
v -1.000000 0.000000 15.000000
v 1.000000 0.000000 5.000000
v 1.000000 0.000000 3.000000
v 1.000000 0.000000 1.000000
v 1.000000 0.000000 -1.000000
v 3.000000 1.000000 3.000000
v 3.000000 0.500000 1.000000
v 3.000000 0.000000 -1.000000
v 7.000000 1.500000 3.000000
v 3.000000 0.000000 15.000000
v 5.000000 1.500000 3.000000
v 5.000000 1.000000 1.000000
v 5.000000 0.000000 -1.000000
v -1.000000 0.000000 -7.000000
v -5.000000 0.000000 -5.000000
v -19.000000 0.000000 -5.000000
v -21.000000 0.000000 5.000000
v -13.000000 0.000000 -5.000000
v -11.000000 0.000000 -3.000000
v -21.000000 0.000000 -3.000000
v -7.000000 0.000000 -3.000000
v -3.000000 0.000000 -5.000000
v 7.000000 1.000000 1.000000
v 7.000000 0.500000 -1.000000
v 5.000000 0.000000 -3.000000
v 7.000000 0.000000 -3.000000
v 3.000000 0.000000 -7.000000
v -9.000000 -0.500000 17.000000
v -7.000000 -0.500000 17.000000
v -11.000000 -0.500000 17.000000
v -13.000000 -0.500000 17.000000
v -19.000000 -0.500000 17.000000
v -3.000000 -0.500000 17.000000
v -1.000000 -0.500000 17.000000
v 3.000000 -0.500000 17.000000
v 5.000000 -0.500000 19.000000
v -19.000000 -0.500000 23.000000
v -15.000000 -0.500000 23.000000
v 6.000000 -0.500000 21.000000
v -27.000000 -0.500000 21.000000
v -23.000000 -0.500000 19.000000
v -21.000000 -0.500000 17.000000
v -28.000000 -0.500000 22.999998
v 8.000000 -0.500000 23.000000
v 3.000000 2.000000 5.000000
v 5.000000 2.000000 5.000000
v 8.000000 2.000000 5.000000
v 8.000000 2.000000 7.000000
v 3.000000 2.000000 13.000000
v 6.000000 2.000000 13.000000
v 8.000000 2.000000 11.000000
v 3.000000 0.000000 5.000000
v 14.000000 2.000000 7.000000
v 14.000000 2.000000 11.000000
v -14.187823 0.000000 1.701426
v -19.000000 -0.500000 20.000000
v -19.000000 -0.500000 18.000000
v -15.000000 -0.500000 18.000000
v -15.000000 -0.500000 20.000000
vn -0.0000 0.9701 -0.2425
vn -0.0000 1.0000 -0.0000
vn -0.0000 0.9701 0.2425
vn 0.2357 0.9428 0.2357
vn -0.2425 0.9701 -0.0000
vn -0.2357 0.9428 -0.2357
vn -0.2182 0.8729 -0.4364
vn -0.4082 0.8165 0.4082
vn -0.4364 0.8729 -0.2182
vn -0.2357 0.9428 0.2357
s 0
f 34//1 37//1 36//1
f 76//2 73//2 71//2
f 41//2 9//2 80//2
f 17//3 21//3 16//3
f 19//4 14//4 18//4
f 29//2 33//2 30//2
f 38//1 33//1 32//1
f 77//2 28//2 27//2
f 28//5 32//5 29//5
f 31//6 37//6 32//6
f 38//2 51//2 50//2
f 24//3 14//3 19//3
f 20//3 53//3 18//3
f 26//2 25//2 23//2
f 58//2 19//2 54//2
f 20//2 15//2 16//2
f 26//3 60//3 35//3
f 36//1 70//1 71//1
f 36//1 71//1 34//1
f 71//1 72//1 34//1
f 34//1 48//1 37//1
f 71//2 70//2 74//2
f 74//2 75//2 76//2
f 76//2 79//2 78//2
f 73//2 72//2 71//2
f 76//2 78//2 73//2
f 71//2 74//2 76//2
f 8//2 12//2 15//2
f 12//2 17//2 16//2
f 12//2 16//2 15//2
f 4//2 7//2 13//2
f 7//2 8//2 15//2
f 7//2 15//2 13//2
f 15//2 20//2 18//2
f 15//2 18//2 13//2
f 4//2 13//2 14//2
f 4//2 14//2 1//2
f 14//2 23//2 1//2
f 23//2 25//2 27//2
f 1//2 23//2 27//2
f 25//2 26//2 35//2
f 35//2 77//2 25//2
f 77//2 27//2 25//2
f 80//2 4//2 5//2
f 27//2 28//2 2//2
f 1//2 27//2 2//2
f 28//2 29//2 2//2
f 29//2 30//2 3//2
f 33//2 38//2 50//2
f 30//2 33//2 50//2
f 50//2 51//2 52//2
f 52//2 39//2 30//2
f 39//2 47//2 30//2
f 47//2 40//2 46//2
f 47//2 46//2 3//2
f 50//2 52//2 30//2
f 47//2 3//2 30//2
f 3//2 2//2 29//2
f 42//2 11//2 10//2
f 41//2 45//2 9//2
f 45//2 42//2 10//2
f 44//2 43//2 6//2
f 43//2 41//2 80//2
f 5//2 43//2 80//2
f 5//2 6//2 43//2
f 1//2 5//2 4//2
f 45//2 10//2 9//2
f 17//3 22//3 21//3
f 13//2 18//2 14//2
f 18//4 53//4 19//4
f 53//2 54//2 19//2
f 29//6 32//6 33//6
f 32//7 37//7 38//7
f 37//1 48//1 49//1
f 38//7 37//7 49//7
f 77//8 31//8 28//8
f 28//9 31//9 32//9
f 31//6 36//6 37//6
f 38//6 49//6 51//6
f 24//3 23//3 14//3
f 20//3 55//3 53//3
f 23//10 24//10 26//10
f 24//2 58//2 59//2
f 26//10 24//10 59//10
f 56//2 21//2 22//2
f 56//2 22//2 83//2
f 55//2 56//2 84//2
f 56//2 83//2 84//2
f 82//2 57//2 67//2
f 53//2 55//2 63//2
f 82//2 67//2 81//2
f 67//2 66//2 81//2
f 54//2 53//2 63//2
f 55//2 84//2 63//2
f 83//2 82//2 84//2
f 84//2 82//2 81//2
f 66//2 65//2 62//2
f 65//2 68//2 62//2
f 62//2 81//2 66//2
f 63//2 69//2 64//2
f 63//2 64//2 58//2
f 54//2 63//2 58//2
f 64//2 61//2 59//2
f 61//2 60//2 59//2
f 58//2 24//2 19//2
f 59//2 58//2 64//2
f 16//10 21//10 20//10
f 21//2 56//2 55//2
f 20//10 21//10 55//10
f 26//3 59//3 60//3
f 36//7 31//7 70//7
